<svg aria-hidden="true" style="width:0;height:0;position:absolute;overflow:hidden" xmlns="http://www.w3.org/2000/svg"><defs><symbol id="icon-hamburger" viewBox="0 0 32 32"><path stroke="#324052" stroke-linecap="round" stroke-width="1.524" d="M4 9.333h24.381M4 16.19h24.381M4 23.048h24.381"/></symbol><symbol id="icon-lang" viewBox="0 0 46 32"><path d="M15.226.143h5.063v21.062c0 2.32-.438 4.188-1.313 5.604-.861 1.417-2.028 2.451-3.5 3.104-1.458.653-3.083.979-4.875.979-1.861 0-3.521-.326-4.979-.979s-2.604-1.688-3.438-3.104c-.833-1.417-1.25-3.285-1.25-5.604V.143h5.042v21.062c0 1.444.181 2.563.542 3.354.375.792.903 1.34 1.583 1.646.694.306 1.528.458 2.5.458s1.799-.153 2.479-.458c.694-.306 1.222-.854 1.583-1.646.375-.792.563-1.91.563-3.354V.143zM33.811 4.31l-7.333 26.167h-5.292L30.811.144h3.292l-.292 4.167zm5.854 26.166L32.311 4.309 31.957.142h3.354l9.667 30.333h-5.312zm.125-11.271v4.25H25.665v-4.25H39.79z"/></symbol></defs></svg>