<svg aria-hidden="true" style="width:0;height:0;position:absolute;overflow:hidden" xmlns="http://www.w3.org/2000/svg"><defs><symbol id="icon-hamburger" viewBox="0 0 32 32"><path stroke="#324052" stroke-linecap="round" stroke-width="1.524" d="M4 9.333h24.381M4 16.19h24.381M4 23.048h24.381"/></symbol><symbol id="icon-lang" viewBox="0 0 46 32"><path d="M15.226.143h5.063v21.062c0 2.32-.438 4.188-1.313 5.604-.861 1.417-2.028 2.451-3.5 3.104-1.458.653-3.083.979-4.875.979-1.861 0-3.521-.326-4.979-.979s-2.604-1.688-3.438-3.104c-.833-1.417-1.25-3.285-1.25-5.604V.143h5.042v21.062c0 1.444.181 2.563.542 3.354.375.792.903 1.34 1.583 1.646.694.306 1.528.458 2.5.458s1.799-.153 2.479-.458c.694-.306 1.222-.854 1.583-1.646.375-.792.563-1.91.563-3.354V.143zM33.811 4.31l-7.333 26.167h-5.292L30.811.144h3.292l-.292 4.167zm5.854 26.166L32.311 4.309 31.957.142h3.354l9.667 30.333h-5.312zm.125-11.271v4.25H25.665v-4.25H39.79z"/></symbol><symbol id="icon-close" viewBox="0 0 32 32"><path d="M24 4H8a4.003 4.003 0 0 0-4 4v16a4.003 4.003 0 0 0 4 4h16a4.003 4.003 0 0 0 4-4V8a4.003 4.003 0 0 0-4-4zm1.333 20a1.335 1.335 0 0 1-1.334 1.334h-16A1.335 1.335 0 0 1 6.665 24V8a1.335 1.335 0 0 1 1.334-1.334h16A1.335 1.335 0 0 1 25.333 8v16z"/><path d="M19.613 12.387a1.334 1.334 0 0 0-1.894 0l-1.72 1.733-1.72-1.733a1.34 1.34 0 0 0-1.894 1.894l1.733 1.72-1.733 1.72a1.334 1.334 0 0 0 0 1.894 1.334 1.334 0 0 0 1.894 0l1.72-1.733 1.72 1.733a1.334 1.334 0 0 0 1.894 0 1.334 1.334 0 0 0 0-1.894l-1.733-1.72 1.733-1.72a1.334 1.334 0 0 0 0-1.894z"/></symbol><symbol id="icon-close-mobile" viewBox="0 0 32 32"><path fill="none" d="M12.71 7.291a.383.383 0 0 0-.542 0L10 9.458 7.833 7.291a.383.383 0 1 0-.542.541L9.458 10 7.29 12.167a.384.384 0 0 0 0 .542c.15.149.392.149.542 0L10 10.542l2.168 2.167a.384.384 0 0 0 .542 0 .386.386 0 0 0 0-.542L10.542 10l2.168-2.168a.385.385 0 0 0 0-.541zM10 1.188a8.812 8.812 0 1 0 0 17.625 8.812 8.812 0 0 0 0-17.625zm0 16.858a8.046 8.046 0 1 1 0-16.092 8.046 8.046 0 0 1 0 16.092z"/></symbol></defs></svg>