<svg width="56" height="42" fill="none" xmlns="http://www.w3.org/2000/svg"><g filter="url('#filter0_d_4_230')"><mask id="mask0_4_230" style="mask-type:luminance" maskUnits="userSpaceOnUse" x="0" y="0" width="44" height="42"><path d="M26.647 16.365c-2.55-3.588-5.295-6.433-8.339-9.81L0 15.974v2.107l18.09-8.73 8.544 8.395.013-1.382m0 4.936c-2.55-3.205-5.295-5.746-8.339-8.763L0 20.953v1.883l18.09-7.797 8.543 7.496.014-1.234Zm0 4.947c-2.55-2.799-5.295-5.018-8.339-7.652L0 25.945v1.642l18.09-6.808 8.544 6.546.013-1.077Zm0 4.704c-2.55-2.898-5.295-5.197-8.339-7.925L0 30.638v1.702l18.09-7.053 8.543 6.782.014-1.117Zm0 4.97c-2.55-2.445-5.295-4.384-8.339-6.686L0 35.657v1.435l18.09-5.949 8.543 5.72.014-.94Zm0 5.076c-2.55-1.771-5.295-3.175-8.339-4.842L0 40.806v1.04l18.09-4.308 8.543 4.141.014-.681Zm1.232-16.365 10.932-6 5.163 5.768L44 21.19c-.046.018-.432-.29-1.159-.925v1.364l-3.899-4.914-11.063 6.473v1.446Zm16.104 1.968c-1.542-2.168-3.199-3.888-5.04-5.929L27.88 26.367v1.273l10.933-5.276 5.162 5.073.009-.836Zm0 2.983c-1.542-1.937-3.199-3.473-5.04-5.295L27.88 29.375v1.137L38.812 25.8l5.162 4.531.009-.747Zm0 2.99c-1.542-1.691-3.199-3.033-5.04-4.624L27.88 32.39v.993l10.933-4.114 5.162 3.956.009-.652Zm0 2.843c-1.542-1.752-3.199-3.141-5.04-4.79l-11.064 4.6v1.03l10.933-4.263 5.162 4.099.009-.676Zm0 3.003c-1.542-1.478-3.199-2.65-5.04-4.04L27.88 38.26v.868l10.932-3.595 5.163 3.457.008-.569v-.001Zm0 3.067c-1.542-1.07-3.199-1.919-5.04-2.926L27.88 41.372V42l10.933-2.603 5.162 2.503.009-.413ZM0 13.108l18.09-9.927 8.544 9.546.043-5.316c-.075.03-.715-.48-1.917-1.53v2.255L18.308 0 0 10.714v2.394Z" fill="#fff"/></mask><g mask="url('#mask0_4_230')"><path d="M55.828 0h-67.656v63.213h67.656V0Z" fill="#825808"/></g></g><defs><filter id="filter0_d_4_230" x="-8" y="-8" width="64" height="62" filterUnits="userSpaceOnUse" color-interpolation-filters="sRGB"><feFlood flood-opacity="0" result="BackgroundImageFix"/><feColorMatrix in="SourceAlpha" values="0 0 0 0 0 0 0 0 0 0 0 0 0 0 0 0 0 0 127 0" result="hardAlpha"/><feOffset dx="2" dy="2"/><feGaussianBlur stdDeviation="5"/><feComposite in2="hardAlpha" operator="out"/><feColorMatrix values="0 0 0 0 0 0 0 0 0 0 0 0 0 0 0 0 0 0 0.15 0"/><feBlend in2="BackgroundImageFix" result="effect1_dropShadow_4_230"/><feBlend in="SourceGraphic" in2="effect1_dropShadow_4_230" result="shape"/></filter></defs></svg>