<svg aria-hidden="true" style="position: absolute; width: 0; height: 0; overflow: hidden;" version="1.1" xmlns="http://www.w3.org/2000/svg" xmlns:xlink="http://www.w3.org/1999/xlink">
    <defs>
        <symbol id="icon-hamburger" viewBox="0 0 32 32">
            <path stroke="#324052" stroke-linejoin="miter" stroke-linecap="round" stroke-miterlimit="4" stroke-width="1.5238" d="M4 9.333h24.381M4 16.19h24.381M4 23.048h24.381"></path>
        </symbol>
        <symbol id="icon-lang" viewBox="0 0 46 32">
            <path d="M15.226 0.143h5.063v21.062c0 2.32-0.438 4.188-1.313 5.604-0.861 1.417-2.028 2.451-3.5 3.104-1.458 0.653-3.083 0.979-4.875 0.979-1.861 0-3.521-0.326-4.979-0.979s-2.604-1.688-3.438-3.104c-0.833-1.417-1.25-3.285-1.25-5.604v-21.062h5.042v21.062c0 1.444 0.181 2.563 0.542 3.354 0.375 0.792 0.903 1.34 1.583 1.646 0.694 0.306 1.528 0.458 2.5 0.458s1.799-0.153 2.479-0.458c0.694-0.306 1.222-0.854 1.583-1.646 0.375-0.792 0.563-1.91 0.563-3.354v-21.062zM33.811 4.31l-7.333 26.167h-5.292l9.625-30.333h3.292l-0.292 4.167zM39.665 30.476l-7.354-26.167-0.354-4.167h3.354l9.667 30.333h-5.312zM39.79 19.205v4.25h-14.125v-4.25h14.125z"></path>
        </symbol>
    </defs>
</svg>

