<svg aria-hidden="true" style="position: absolute; width: 0; height: 0; overflow: hidden;" version="1.1" xmlns="http://www.w3.org/2000/svg" xmlns:xlink="http://www.w3.org/1999/xlink">
    <defs>
        <symbol id="icon-hamburger" viewBox="0 0 32 32">
            <path stroke="#324052" stroke-linejoin="miter" stroke-linecap="round" stroke-miterlimit="4" stroke-width="1.5238" d="M4 9.333h24.381M4 16.19h24.381M4 23.048h24.381"></path>
        </symbol>
        <symbol id="icon-lang" viewBox="0 0 46 32">
            <path d="M15.226 0.143h5.063v21.062c0 2.32-0.438 4.188-1.313 5.604-0.861 1.417-2.028 2.451-3.5 3.104-1.458 0.653-3.083 0.979-4.875 0.979-1.861 0-3.521-0.326-4.979-0.979s-2.604-1.688-3.438-3.104c-0.833-1.417-1.25-3.285-1.25-5.604v-21.062h5.042v21.062c0 1.444 0.181 2.563 0.542 3.354 0.375 0.792 0.903 1.34 1.583 1.646 0.694 0.306 1.528 0.458 2.5 0.458s1.799-0.153 2.479-0.458c0.694-0.306 1.222-0.854 1.583-1.646 0.375-0.792 0.563-1.91 0.563-3.354v-21.062zM33.811 4.31l-7.333 26.167h-5.292l9.625-30.333h3.292l-0.292 4.167zM39.665 30.476l-7.354-26.167-0.354-4.167h3.354l9.667 30.333h-5.312zM39.79 19.205v4.25h-14.125v-4.25h14.125z"></path>
        </symbol>
        <symbol id="icon-close" viewBox="0 0 32 32">
            <path d="M24 4h-16c-1.061 0-2.078 0.421-2.828 1.172s-1.172 1.768-1.172 2.828v16c0 1.061 0.421 2.078 1.172 2.828s1.768 1.172 2.828 1.172h16c1.061 0 2.078-0.421 2.828-1.172s1.172-1.768 1.172-2.828v-16c0-1.061-0.421-2.078-1.172-2.828s-1.768-1.172-2.828-1.172zM25.333 24c0 0.354-0.14 0.693-0.391 0.943s-0.589 0.391-0.943 0.391h-16c-0.354 0-0.693-0.14-0.943-0.391s-0.391-0.589-0.391-0.943v-16c0-0.354 0.14-0.693 0.391-0.943s0.589-0.391 0.943-0.391h16c0.354 0 0.693 0.14 0.943 0.391s0.391 0.589 0.391 0.943v16z"></path>
            <path d="M19.613 12.387c-0.124-0.125-0.271-0.224-0.434-0.292s-0.337-0.103-0.513-0.103c-0.176 0-0.35 0.035-0.513 0.103s-0.31 0.167-0.434 0.292l-1.72 1.733-1.72-1.733c-0.251-0.251-0.592-0.392-0.947-0.392s-0.696 0.141-0.947 0.392c-0.251 0.251-0.392 0.592-0.392 0.947s0.141 0.696 0.392 0.947l1.733 1.72-1.733 1.72c-0.125 0.124-0.224 0.271-0.292 0.434s-0.103 0.337-0.103 0.513c0 0.176 0.035 0.35 0.103 0.513s0.167 0.31 0.292 0.434c0.124 0.125 0.271 0.224 0.434 0.292s0.337 0.103 0.513 0.103 0.35-0.035 0.513-0.103c0.163-0.068 0.31-0.167 0.434-0.292l1.72-1.733 1.72 1.733c0.124 0.125 0.271 0.224 0.434 0.292s0.337 0.103 0.513 0.103 0.35-0.035 0.513-0.103c0.162-0.068 0.31-0.167 0.434-0.292 0.125-0.124 0.224-0.271 0.292-0.434s0.103-0.337 0.103-0.513-0.035-0.35-0.103-0.513c-0.068-0.162-0.167-0.31-0.292-0.434l-1.733-1.72 1.733-1.72c0.125-0.124 0.224-0.271 0.292-0.434s0.103-0.337 0.103-0.513-0.035-0.35-0.103-0.513c-0.068-0.162-0.167-0.31-0.292-0.434z"></path>
        </symbol>
        <symbol id="icon-close-mobile" viewBox="0 0 32 32">
            <path fill="none" d="M12.71,7.291c-0.15-0.15-0.393-0.15-0.542,0L10,9.458L7.833,7.291c-0.15-0.15-0.392-0.15-0.542,0c-0.149,0.149-0.149,0.392,0,0.541L9.458,10l-2.168,2.167c-0.149,0.15-0.149,0.393,0,0.542c0.15,0.149,0.392,0.149,0.542,0L10,10.542l2.168,2.167c0.149,0.149,0.392,0.149,0.542,0c0.148-0.149,0.148-0.392,0-0.542L10.542,10l2.168-2.168C12.858,7.683,12.858,7.44,12.71,7.291z M10,1.188c-4.867,0-8.812,3.946-8.812,8.812c0,4.867,3.945,8.812,8.812,8.812s8.812-3.945,8.812-8.812C18.812,5.133,14.867,1.188,10,1.188z M10,18.046c-4.444,0-8.046-3.603-8.046-8.046c0-4.444,3.603-8.046,8.046-8.046c4.443,0,8.046,3.602,8.046,8.046C18.046,14.443,14.443,18.046,10,18.046z"></path>
        </symbol>
    </defs>
</svg>

